<svg width="12" height="12" viewBox="0 0 12 12" fill="none" xmlns="http://www.w3.org/2000/svg">
<g clip-path="url(#clip0_1_190)">
<path d="M5.99998 4.8C7.01998 4.8 7.83598 3.99 7.83598 3C7.83598 2.01 7.01998 1.2 5.99998 1.2C4.97998 1.2 4.16398 2.01 4.16398 3C4.16398 3.99 4.97998 4.8 5.99998 4.8ZM5.99998 6C4.31998 6 2.96398 4.656 2.96398 3C2.96398 1.344 4.31998 0 5.99998 0C7.67998 0 9.03598 1.344 9.03598 3C9.03598 4.656 7.67998 6 5.99998 6ZM1.79998 10.8H10.2V10.002C10.2 8.952 8.81398 7.866 5.99998 7.866C3.18598 7.866 1.79998 8.952 1.79998 10.002V10.8ZM5.99998 6.666C9.99597 6.666 11.4 8.664 11.4 10.002V12H0.599976V10.002C0.599976 8.664 2.00398 6.666 5.99998 6.666Z" fill="#ACACAC"/>
</g>
<defs>
<clipPath id="clip0_1_190">
<rect width="12" height="12" fill="white"/>
</clipPath>
</defs>
</svg>
