<svg width="10" height="14" viewBox="0 0 10 14" fill="none" xmlns="http://www.w3.org/2000/svg">
<path d="M1.25 14C0.906251 14 0.611876 13.8693 0.366876 13.608C0.121876 13.3467 -0.000415605 13.0329 1.06112e-06 12.6667V6C1.06112e-06 5.63333 0.122501 5.31933 0.367501 5.058C0.612501 4.79667 0.906668 4.66622 1.25 4.66667H1.875V3.33333C1.875 2.41111 2.17979 1.62489 2.78938 0.974667C3.39896 0.324445 4.13583 -0.000443989 5 4.55373e-07C5.86458 4.55373e-07 6.60167 0.325112 7.21125 0.975334C7.82083 1.62556 8.12542 2.41156 8.125 3.33333V4.66667H8.75C9.09375 4.66667 9.38812 4.79733 9.63312 5.05867C9.87812 5.32 10.0004 5.63378 10 6V12.6667C10 13.0333 9.8775 13.3473 9.6325 13.6087C9.3875 13.87 9.09333 14.0004 8.75 14H1.25ZM1.25 12.6667H8.75V6H1.25V12.6667ZM5 10.6667C5.34375 10.6667 5.63813 10.536 5.88313 10.2747C6.12813 10.0133 6.25042 9.69956 6.25 9.33333C6.25 8.96667 6.1275 8.65267 5.8825 8.39133C5.6375 8.13 5.34333 7.99956 5 8C4.65625 8 4.36188 8.13067 4.11688 8.392C3.87188 8.65333 3.74958 8.96711 3.75 9.33333C3.75 9.7 3.8725 10.014 4.1175 10.2753C4.3625 10.5367 4.65667 10.6671 5 10.6667ZM3.125 4.66667H6.875V3.33333C6.875 2.77778 6.69271 2.30556 6.32812 1.91667C5.96354 1.52778 5.52083 1.33333 5 1.33333C4.47917 1.33333 4.03646 1.52778 3.67188 1.91667C3.30729 2.30556 3.125 2.77778 3.125 3.33333V4.66667Z" fill="#ACACAC"/>
</svg>
